<?xml version="1.0" encoding="iso-8859-1"?>
<!-- Generator: Adobe Illustrator 21.1.0, SVG Export Plug-In . SVG Version: 6.00 Build 0)  -->
<svg version="1.1" id="Layer_1_1_" xmlns="http://www.w3.org/2000/svg" xmlns:xlink="http://www.w3.org/1999/xlink" x="0px" y="0px"
	 viewBox="0 0 16 16" style="enable-background:new 0 0 16 16;" xml:space="preserve">
<rect y="15" width="3" height="1"/>
<rect y="13" width="3" height="1"/>
<rect y="11" width="3" height="1"/>
<rect y="9" width="3" height="1"/>
<rect x="4" y="15" width="3" height="1"/>
<rect x="4" y="13" width="3" height="1"/>
<rect x="4" y="11" width="3" height="1"/>
<rect x="4" y="9" width="3" height="1"/>
<rect x="4" y="7" width="3" height="1"/>
<rect x="4" y="5" width="3" height="1"/>
<rect x="8" y="15" width="3" height="1"/>
<rect x="8" y="13" width="3" height="1"/>
<rect x="8" y="11" width="3" height="1"/>
<rect x="8" y="9" width="3" height="1"/>
<rect x="8" y="7" width="3" height="1"/>
<rect x="8" y="5" width="3" height="1"/>
<rect x="8" y="3" width="3" height="1"/>
<rect x="8" y="1" width="3" height="1"/>
<rect x="12" y="15" width="3" height="1"/>
<rect x="12" y="13" width="3" height="1"/>
<rect x="12" y="11" width="3" height="1"/>
<rect x="12" y="9" width="3" height="1"/>
<rect x="12" y="7" width="3" height="1"/>
<rect x="12" y="5" width="3" height="1"/>
</svg>
